<svg height='100px' width='100px'  fill="#EAAA00" version="1.1" xmlns:rdf="http://www.w3.org/1999/02/22-rdf-syntax-ns#" xmlns:cc="http://creativecommons.org/ns#" xmlns:dc="http://purl.org/dc/elements/1.1/" xmlns:svg="http://www.w3.org/2000/svg" xmlns="http://www.w3.org/2000/svg" xmlns:xlink="http://www.w3.org/1999/xlink" x="0px" y="0px" viewBox="20.984 -0.597 61.011 100" enable-background="new 20.984 -0.597 61.011 100" xml:space="preserve"><path d="M77.094,52.342h0.742V23.995h-0.039c-0.009-0.186-0.011-0.372-0.022-0.556C76.865,9.308,64.642-1.447,50.498-0.543
	c-6.847,0.44-13.111,3.52-17.641,8.671c-4.53,5.152-6.782,11.759-6.343,18.605l10.295-0.662c-0.263-4.096,1.085-8.049,3.795-11.132
	s6.458-4.925,10.555-5.188c8.454-0.545,15.776,5.893,16.321,14.354c0.017,0.259,0.024,0.518,0.029,0.776l0.103-0.002v18.134
	c-4.682-2.928-10.208-4.626-16.126-4.626C34.666,38.39,20.982,52.075,20.984,68.901c0.001,16.819,13.686,30.502,30.504,30.502h0.004
	c8.148,0,15.81-3.173,21.57-8.937c5.762-5.762,8.934-13.423,8.933-21.577C81.994,62.793,80.188,57.112,77.094,52.342z
	 M67.266,84.671c-4.213,4.215-9.815,6.535-15.774,6.536l-0.003,4.098v-4.098c-12.299,0-22.306-10.007-22.307-22.311
	c-0.001-12.302,10.005-22.31,22.308-22.311c12.299,0,22.307,10.006,22.309,22.312C73.798,74.855,71.479,80.458,67.266,84.671z"></path><path d="M51.482,60.647c-4.874,0-8.823,3.952-8.823,8.824c0,0.001,0,0.002,0,0.002c0,4.873,3.951,8.823,8.825,8.822
	c4.872-0.001,8.822-3.951,8.821-8.824c0,0,0,0,0-0.001C60.306,64.597,56.354,60.647,51.482,60.647z"></path></svg>